<?xml version="1.0" encoding="utf-8"?>
<!-- Generator: Adobe Illustrator 19.2.1, SVG Export Plug-In . SVG Version: 6.00 Build 0)  -->
<svg version="1.1" id="Layer_1" xmlns="http://www.w3.org/2000/svg" xmlns:xlink="http://www.w3.org/1999/xlink" x="0px" y="0px"
	 viewBox="0 0 16.3 16.3" style="enable-background:new 0 0 16.3 16.3;" xml:space="preserve">
<style type="text/css">
	.st0{display:none;}
	.st1{display:inline;}
	.st2{fill:#FFFFFF;}
	.st3{fill:#1F77B4;}
</style>
<g id="applicationShapeId" class="st0">
	<g id="svg_1" class="st1">
		<path id="svg_3" class="st2" d="M8.1,0.5c4.2,0,7.7,3.4,7.7,7.7s-3.4,7.6-7.7,7.6s-7.6-3.4-7.6-7.7S3.9,0.5,8.1,0.5
			C8.1,0.5,8.1,0.5,8.1,0.5z"/>
		<path id="svg_2" class="st3" d="M8.1,0.5c4.2,0,7.7,3.4,7.7,7.7s-3.4,7.6-7.7,7.6s-7.6-3.4-7.6-7.7S3.9,0.5,8.1,0.5
			C8.1,0.5,8.1,0.5,8.1,0.5z M10.4,11.7c0.1,0.1,0.1,0.3,0.2,0.5c0.1,0.2,0.2,0.3,0.2,0.4s0.2,0.2,0.3,0.2c0.1,0.1,0.2,0.1,0.4,0.1
			c0.2,0,0.5-0.1,0.6-0.3c0.2-0.2,0.3-0.4,0.3-0.6c0-0.2-0.1-0.5-0.3-1l-2.4-6C9.6,4.8,9.5,4.6,9.4,4.4C9.4,4.2,9.3,4.1,9.2,3.9
			C9.1,3.7,8.9,3.6,8.7,3.5C8.6,3.4,8.3,3.4,8.1,3.4c-0.3,0-0.5,0-0.6,0.2C7.3,3.6,7.1,3.7,7,3.9C6.9,4.1,6.8,4.3,6.7,4.5
			C6.6,4.7,6.5,4.9,6.5,5.1l-2.3,6C4,11.4,4,11.6,3.9,11.7c0,0.1-0.1,0.3-0.1,0.4c0,0.2,0.1,0.4,0.3,0.6C4.3,12.9,4.5,13,4.8,13
			c0.3,0,0.5-0.1,0.6-0.2s0.3-0.5,0.4-0.9l0.4-1.2H10L10.4,11.7L10.4,11.7z M6.7,9.2h2.8L8.1,5.4C8.1,5.4,6.7,9.2,6.7,9.2z"/>
	</g>
</g>
<g id="databaseShapeId">
	<path id="svg_1_1_" class="st3" d="M0.7,2.9c0-1.3,3.4-2.4,7.6-2.4S16,1.6,16,2.9s-3.4,2.4-7.6,2.4c-0.5,0-0.5,1.5,0,1.5
		c2.2,0,4.2-0.2,5.6-0.7c0.8-0.3,1.5-0.7,2-1c0,8.7,0,5.9,0,8.4c0,1.3-3.4,2.4-7.6,2.4s-7.6-1.1-7.6-2.4C0.7,9.9,0.7,6.4,0.7,2.9z"
		/>
</g>
</svg>
