<?xml version="1.0" encoding="utf-8"?>
<!-- Generator: Adobe Illustrator 19.2.1, SVG Export Plug-In . SVG Version: 6.00 Build 0)  -->
<svg version="1.1" id="Layer_1" xmlns="http://www.w3.org/2000/svg" xmlns:xlink="http://www.w3.org/1999/xlink" x="0px" y="0px"
	 viewBox="0 0 16.3 16.3" style="enable-background:new 0 0 16.3 16.3;" xml:space="preserve">
<style type="text/css">
	.st0{display:none;}
	.st1{display:inline;}
	.st2{fill:#FFFFFF;}
	.st3{fill:#1F77B4;}
	.st4{display:inline;fill:#1F77B4;}
	.st5{display:inline;fill:#FFFFFF;stroke:#FFFFFF;stroke-width:0.4458;}
	.st6{display:inline;fill:#00FF00;}
	.st7{fill:#FFFFFF;stroke:#FFFFFF;stroke-width:0.1583;}
	.st8{fill:#00FF00;}
</style>
<g id="applicationShapeId" class="st0">
	<g id="svg_1" class="st1">
		<path id="svg_3" class="st2" d="M8.1,0.5c4.2,0,7.7,3.4,7.7,7.7s-3.4,7.6-7.7,7.6s-7.6-3.4-7.6-7.7S3.9,0.5,8.1,0.5
			C8.1,0.5,8.1,0.5,8.1,0.5z"/>
		<path id="svg_2" class="st3" d="M8.1,0.5c4.2,0,7.7,3.4,7.7,7.7s-3.4,7.6-7.7,7.6s-7.6-3.4-7.6-7.7S3.9,0.5,8.1,0.5
			C8.1,0.5,8.1,0.5,8.1,0.5z M10.4,11.7c0.1,0.1,0.1,0.3,0.2,0.5c0.1,0.2,0.2,0.3,0.2,0.4s0.2,0.2,0.3,0.2c0.1,0.1,0.2,0.1,0.4,0.1
			c0.2,0,0.5-0.1,0.6-0.3c0.2-0.2,0.3-0.4,0.3-0.6c0-0.2-0.1-0.5-0.3-1l-2.4-6C9.6,4.8,9.5,4.6,9.4,4.4C9.4,4.2,9.3,4.1,9.2,3.9
			C9.1,3.7,8.9,3.6,8.7,3.5C8.6,3.4,8.3,3.4,8.1,3.4c-0.3,0-0.5,0-0.6,0.2C7.3,3.6,7.1,3.7,7,3.9C6.9,4.1,6.8,4.3,6.7,4.5
			C6.6,4.7,6.5,4.9,6.5,5.1l-2.3,6C4,11.4,4,11.6,3.9,11.7c0,0.1-0.1,0.3-0.1,0.4c0,0.2,0.1,0.4,0.3,0.6C4.3,12.9,4.5,13,4.8,13
			c0.3,0,0.5-0.1,0.6-0.2s0.3-0.5,0.4-0.9l0.4-1.2H10L10.4,11.7L10.4,11.7z M6.7,9.2h2.8L8.1,5.4C8.1,5.4,6.7,9.2,6.7,9.2z"/>
	</g>
</g>
<g id="databaseShapeId" class="st0">
	<path id="svg_1_1_" class="st4" d="M0.7,2.9c0-1.3,3.4-2.4,7.6-2.4S16,1.6,16,2.9s-3.4,2.4-7.6,2.4c-0.5,0-0.5,1.5,0,1.5
		c2.2,0,4.2-0.2,5.6-0.7c0.8-0.3,1.5-0.7,2-1c0,8.7,0,5.9,0,8.4c0,1.3-3.4,2.4-7.6,2.4s-7.6-1.1-7.6-2.4C0.7,9.9,0.7,6.4,0.7,2.9z"
		/>
</g>
<g id="svg_1_2_" class="st0">
	<polygon id="svg_7" class="st5" points="3.7,13.2 2.9,12.9 0.5,10.6 0.5,4.2 1.1,3.6 13,3.6 15.4,6 15.7,6.8 15.7,13.2 	"/>
	<polygon id="svg_2_1_" class="st4" points="1.1,3.6 13,3.6 15.4,6 3.7,6 3.5,6 	"/>
	<polygon id="svg_3_1_" class="st4" points="2.9,12.9 0.5,10.6 0.5,4.2 2.9,6.6 2.9,6.8 	"/>
	<g id="svg_4" class="st1">
		<path id="svg_5" class="st3" d="M3.7,6.8v6.4h9c-0.3-0.3-0.4-0.8-0.4-1.3c0-0.6,0.2-1.1,0.6-1.5l0,0l0,0c0.4-0.4,0.9-0.6,1.5-0.6
			c0.5,0,0.9,0.2,1.3,0.4V6.8L3.7,6.8L3.7,6.8L3.7,6.8L3.7,6.8L3.7,6.8L3.7,6.8L3.7,6.8C3.7,6.8,3.7,6.8,3.7,6.8z M5.9,10.6
			c-0.3,0-0.6-0.3-0.6-0.6c0-0.3,0.3-0.6,0.6-0.6c0.3,0,0.6,0.3,0.6,0.6C6.5,10.3,6.2,10.6,5.9,10.6z M8.7,10.6
			c-0.3,0-0.6-0.3-0.6-0.6c0-0.3,0.3-0.6,0.6-0.6C9,9.4,9.3,9.7,9.3,10C9.3,10.3,9,10.6,8.7,10.6z M11.5,10.6
			c-0.3,0-0.6-0.3-0.6-0.6c0-0.3,0.3-0.6,0.6-0.6c0.3,0,0.6,0.3,0.6,0.6C12.1,10.3,11.8,10.6,11.5,10.6z"/>
		<path id="svg_6" class="st3" d="M14.7,11.7c-0.1-0.1-0.2-0.1-0.3-0.1s-0.2,0-0.3,0.1l0,0C14.1,11.7,14,11.8,14,12s0,0.2,0.1,0.3
			l0,0c0.1,0.1,0.2,0.1,0.3,0.1s0.2,0,0.3-0.1l0,0c0.1-0.1,0.1-0.2,0.1-0.3S14.8,11.7,14.7,11.7L14.7,11.7z"/>
	</g>
	<path id="svg_7_1_" class="st6" d="M14.5,13.2c0.7,0,1.3-0.6,1.3-1.3s-0.6-1.3-1.3-1.3c-0.7,0-1.3,0.6-1.3,1.3
		C13.2,12.7,13.8,13.2,14.5,13.2z"/>
</g>
<g id="otherShapeId">
	<g id="svg_1_3_">
		<polygon id="svg_7_2_" class="st7" points="3.6,12.4 2.7,12 0.2,9.6 0.2,3 0.9,2.4 13.3,2.4 15.7,4.8 16.1,5.7 16.1,12.4 		"/>
		<polygon id="svg_2_2_" class="st3" points="0.9,2.4 13.3,2.4 15.7,4.8 3.6,4.8 3.3,4.8 		"/>
		<path id="svg_3_2_" class="st3" d="M16.1,5.7v3.6c-0.4-0.3-0.8-0.4-1.3-0.4c-0.6,0-1.2,0.3-1.6,0.6l0,0l0,0
			c-0.4,0.4-0.6,0.9-0.6,1.6c0,0.5,0.2,0.9,0.4,1.3H3.6V5.7L16.1,5.7C16.1,5.7,16.1,5.7,16.1,5.7z M15.1,10.7
			c-0.1-0.1-0.2-0.1-0.3-0.1s-0.2,0-0.3,0.1l0,0c-0.1,0.1-0.1,0.2-0.1,0.3s0,0.2,0.1,0.3l0,0c0.1,0.1,0.2,0.1,0.3,0.1s0.2,0,0.3-0.1
			l0,0c0.1-0.1,0.1-0.2,0.1-0.3S15.1,10.8,15.1,10.7L15.1,10.7z"/>
		<path id="svg_4_1_" class="st8" d="M14.8,12.4c0.7,0,1.3-0.6,1.3-1.3s-0.6-1.3-1.3-1.3c-0.7,0-1.3,0.6-1.3,1.3
			C13.4,11.8,14,12.4,14.8,12.4z"/>
		<polygon id="svg_5_1_" class="st3" points="2.7,12 0.2,9.6 0.2,3 2.7,5.4 2.7,5.7 		"/>
	</g>
</g>
</svg>
