<svg xmlns="http://www.w3.org/2000/svg"><g id="serverVirtualShapeId"  fill='#1f77b4'>	<g id="svg_1"><path id="svg_3" fill="#FFFFFF" stroke="#FFFFFF" d="M20.5,19.6v72.2h71.9V19.6C92.3,19.6,20.5,19.6,20.5,19.6z"/><path id="svg_2" d="M20.5,19.6h71.9v54.2c-1.7-1.3-5.5-1.7-7.7-1.7c-1.4,0-5.3,0.1-8.1,2.8c-4.4,4.4-3.9,8.6-3.9,9.7c0,3,1.2,5.6,2.5,7.3H20.5L20.5,19.6C20.5,19.6,20.5,19.6,20.5,19.6z M87.7,84.4c-0.4-0.4-0.9-0.6-1.4-0.6s-1.1,0.2-1.4,0.6l0,0c-0.4,0.4-0.6,0.9-0.6,1.4c0,0.6,0.2,1.1,0.6,1.4l0,0c0.4,0.4,0.9,0.6,1.4,0.6s1.1-0.2,1.4-0.6l0,0c0.4-0.4,0.6-0.9,0.6-1.4C88.3,85.2,88.1,84.7,87.7,84.4L87.7,84.4z"/><path id="svg_3_1_" fill="#00FF00" d="M84.6,92.3c4.3,0,7.7-3.4,7.7-7.7c0-4.3-3.4-7.7-7.7-7.7s-7.7,3.4-7.7,7.7C76.8,88.8,80.4,92.3,84.6,92.3z"/></g></g></svg>