<svg xmlns="http://www.w3.org/2000/svg"><g id="storagePhysicalShapeId"  fill='#1f77b4'><g id="svg_1"><path id="svg_8" fill="#FFFFFF" stroke="#FFFFFF" d="M7.9,21h99.9v77l-21,5.3L7.9,91.6L7.9,21z"/><path id="svg_2" d="M57.9,37.3c27.6,0,50-7,50-15.6S85.5,6,57.9,6s-50,7-50,15.6S30.3,37.3,57.9,37.3L57.9,37.3z"/><path id="svg_3" d="M7.9,67.5c0,8.6,22.4,15.6,50,15.6s50-7,50-15.6v-11c-3.2,2.6-7.6,4.6-13,6.3c-9.6,3-22.7,6-37,6c-14.4,0-27.8-2.5-37.4-5.4c-5.4-1.7-9.4-5.4-12.6-7.9L7.9,67.5C7.9,67.5,7.9,67.5,7.9,67.5z"/><path id="svg_4" d="M94.9,41.9c-9.6,3-22.7,4.8-37,4.8c-14.4,0-27.4-1.9-37-4.8c-5.4-1.7-9.8-3.9-13-6.4v12.9c8.9,6.4,22.4,12.3,50,12.3s38.8-4.8,50-12.3V35.5C104.7,38.1,100.3,40.2,94.9,41.9z"/><path id="svg_5" d="M7.9,90.4L7.9,90.4V77.5c3.2,2.6,7.4,5.9,12.8,7.6c9.6,3,22.9,5.5,37.2,5.5c14.4,0,27.8-3.1,37.4-6c5.4-1.7,9.4-4.6,12.6-7.1v9.2c-2.3-1.8-5.2-2.8-8.3-2.8c-3.8,0-7.3,1.6-9.8,4.1l0,0c-2.5,2.5-4.1,6-4.1,9.8c0,1.9,0.4,3.8,1.1,5.5c-8.2,1.8-18.1,2.9-28.9,2.9C30.3,106,7.9,99,7.9,90.4L7.9,90.4C7.9,90.4,7.9,90.4,7.9,90.4z"/><path id="svg_6" d="M97.7,99.8c1.7-0.7,3.3-1.5,4.6-2.3c0-0.7-0.3-1.4-0.8-1.8c-0.5-0.5-1.2-0.8-2-0.8s-1.5,0.3-2,0.8s-0.8,1.2-0.8,2s0.3,1.5,0.8,2C97.6,99.7,97.7,99.8,97.7,99.8z"/><path id="svg_7" fill="#00FF00" d="M99.6,106c4.6,0,8.3-3.7,8.3-8.3c0-4.6-3.7-8.3-8.3-8.3c-4.6,0-8.3,3.7-8.3,8.3C91.2,102.3,95,106,99.6,106z"/></g></g></svg>