<svg viewBox="7 -6 100 80" width="34" height="30" xmlns="http://www.w3.org/2000/svg"><g id="svg_1"  fill='#1f77b4'><polygon fill-rule="evenodd" fill="#FFFFFF" stroke="#FFFFFF" clip-rule="evenodd" points="26.4,68.8 20.8,66.6 5.4,51.2 5.4,9.5 9.3,5.5 87.7,5.5 103.2,21 105.4,26.5 105.4,68.8" id="svg_7"/><polygon fill-rule="evenodd" clip-rule="evenodd" points="9.3,5.5 87.7,5.5 103.2,21 26.4,21 24.8,21" id="svg_2"/><polygon id="svg_3" points="20.8,66.6 5.4,51.2 5.4,9.4 20.8,24.9 20.8,26.5" clip-rule="evenodd" fill-rule="evenodd"/><g id="svg_4"><path d="m26.4,26.5l0,42.3l59.6,0c-1.8,-2.3 -2.8,-5.2 -2.8,-8.3c0,-3.8 1.6,-7.3 4.1,-9.8l0,0l0,0c2.5,-2.5 6,-4.1 9.8,-4.1c3.1,0 6,1 8.3,2.8l0,-22.9l-79,0l0,0l0,0l0,0l0,0l0,0l0,0l0,0zm14.4,25.1c-2.2,0 -3.9,-1.8 -3.9,-3.9c0,-2.2 1.8,-3.9 3.9,-3.9c2.2,0 3.9,1.8 3.9,3.9c0,2.1 -1.8,3.9 -3.9,3.9zm18.4,0c-2.2,0 -3.9,-1.8 -3.9,-3.9c0,-2.2 1.8,-3.9 3.9,-3.9c2.2,0 3.9,1.8 3.9,3.9c0.1,2.1 -1.7,3.9 -3.9,3.9zm18.5,0c-2.2,0 -3.9,-1.8 -3.9,-3.9c0,-2.2 1.8,-3.9 3.9,-3.9c2.2,0 3.9,1.8 3.9,3.9c0,2.1 -1.7,3.9 -3.9,3.9z" id="svg_5"/><path d="m99,58.5c-0.5,-0.5 -1.2,-0.8 -2,-0.8c-0.8,0 -1.5,0.3 -2,0.8l0,0c-0.5,0.5 -0.8,1.2 -0.8,2c0,0.8 0.3,1.5 0.8,2l0,0c0.5,0.5 1.2,0.8 2,0.8c0.8,0 1.5,-0.3 2,-0.8l0,0c0.5,-0.5 0.8,-1.2 0.8,-2c0,-0.8 -0.3,-1.5 -0.8,-2l0,0z" id="svg_6"/></g><path fill-rule="evenodd" fill="#00FF00" clip-rule="evenodd" d="m97.1,68.8c4.6,0 8.3,-3.7 8.3,-8.3c0,-4.6 -3.7,-8.3 -8.3,-8.3c-4.6,0 -8.3,3.7 -8.3,8.3c-0.1,4.6 3.7,8.3 8.3,8.3z" id="svg_7"/></g></svg>