<svg width="359" height="155" viewBox="0 0 359 155" fill="none" xmlns="http://www.w3.org/2000/svg">
<g clip-path="url(#clip0)">
<path d="M120.402 20.2031C122.039 20.2031 123.366 18.8742 123.366 17.2349C123.366 15.5956 122.039 14.2666 120.402 14.2666C118.766 14.2666 117.439 15.5956 117.439 17.2349C117.439 18.8742 118.766 20.2031 120.402 20.2031Z" fill="#3C8DBC"/>
<path d="M136.55 19.7611C138.73 19.7611 140.497 17.9911 140.497 15.8076C140.497 13.6242 138.73 11.8541 136.55 11.8541C134.37 11.8541 132.603 13.6242 132.603 15.8076C132.603 17.9911 134.37 19.7611 136.55 19.7611Z" fill="#3C8DBC"/>
<path d="M153.302 18.6433C156.029 18.6433 158.239 16.4293 158.239 13.6983C158.239 10.9672 156.029 8.75328 153.302 8.75328C150.576 8.75328 148.365 10.9672 148.365 13.6983C148.365 16.4293 150.576 18.6433 153.302 18.6433Z" fill="#3C8DBC"/>
<path d="M170.66 18.0938C173.93 18.0938 176.581 15.4387 176.581 12.1636C176.581 8.88841 173.93 6.23337 170.66 6.23337C167.39 6.23337 164.74 8.88841 164.74 12.1636C164.74 15.4387 167.39 18.0938 170.66 18.0938Z" fill="#3C8DBC"/>
<path d="M189.235 16.976C193.051 16.976 196.145 13.877 196.145 10.0542C196.145 6.23147 193.051 3.13251 189.235 3.13251C185.418 3.13251 182.325 6.23147 182.325 10.0542C182.325 13.877 185.418 16.976 189.235 16.976Z" fill="#3C8DBC"/>
<path d="M208.415 15.8265C212.778 15.8265 216.315 12.2836 216.315 7.91325C216.315 3.54288 212.778 0 208.415 0C204.052 0 200.515 3.54288 200.515 7.91325C200.515 12.2836 204.052 15.8265 208.415 15.8265Z" fill="#3C8DBC"/>
<path d="M18.5873 71.2824H29.388V23.9734H47.263V16.1865H-0.0253296V23.9734H18.5873V71.2824Z" fill="#231F20"/>
<path d="M44.5707 71.2825H54.1986V37.0717C54.1986 34.4066 55.8505 32.8088 58.6122 32.8088H67.1682V24.9208H58.6122C49.0158 24.9208 44.5455 29.3416 44.5455 38.7516L44.5707 71.2825Z" fill="#231F20"/>
<path d="M81.8781 44.2019C72.4709 44.2019 67.8934 48.1743 67.8934 56.3401V58.1211C67.8934 66.9627 72.4709 71.2825 81.8781 71.2825H109.621V38.9221C109.621 29.4995 105.043 24.9208 95.6358 24.9208H71.544V32.7898H95.6169C98.3848 32.7898 100.03 34.4508 100.03 37.2107V44.2019H81.8781ZM100.043 63.4071H81.8781C77.887 63.4071 77.4645 60.8809 77.4645 59.8263V54.5529C77.4645 51.793 79.0786 50.2078 81.8781 50.2078H100.043V63.4071Z" fill="#231F20"/>
<path d="M147.93 71.2825H157.603V38.9221C157.603 29.4995 153 24.9208 143.53 24.9208H116.55V71.2825H126.19V32.7898H143.504C146.279 32.7898 147.918 34.4508 147.918 37.2107L147.93 71.2825Z" fill="#231F20"/>
<path d="M162.647 71.2825H186.303C195.446 71.2825 199.008 67.3543 199.008 57.2748C199.008 47.8017 195.49 44.1198 186.467 44.1198H176.379C171.966 44.1198 171.966 40.0147 171.966 38.6695C171.966 33.8824 174.368 32.8783 176.379 32.8783H197.489V24.9208H175.37C166.341 24.9208 162.659 28.9753 162.659 38.9221C162.659 48.269 166.177 51.9067 175.2 51.9067H185.288C188.226 51.9067 189.702 53.8013 189.702 57.5274C189.702 62.3146 187.293 63.3187 185.288 63.3187H162.647V71.2825Z" fill="#231F20"/>
<path d="M204.159 71.2825H213.806V24.9208H204.159V71.2825Z" fill="#231F20"/>
<path d="M255.741 71.2825H265.42V24.9208H255.773L255.741 71.2825Z" fill="#231F20"/>
<path d="M285.192 24.9208C280.609 24.9208 269.94 27.1249 269.94 47.5869C269.94 51.5467 270.678 71.2825 285.192 71.2825H298.509C313.011 71.2825 313.767 51.5467 313.767 47.5869C313.767 27.1249 303.099 24.9208 298.509 24.9208H285.192ZM297.405 63.4071H286.296C281.617 63.4071 279.247 58.14 279.247 47.7574C279.247 37.8296 281.617 32.7898 286.296 32.7898H297.405C302.09 32.7898 304.461 37.8422 304.461 47.7574C304.461 58.14 302.09 63.4071 297.405 63.4071Z" fill="#231F20"/>
<path d="M349.353 71.2825H358.994V38.9221C358.994 29.4995 354.397 24.9208 344.927 24.9208H317.966V71.2825H327.613V32.7898H344.927C347.701 32.7898 349.341 34.4508 349.341 37.2107L349.353 71.2825Z" fill="#231F20"/>
<path d="M166.568 136.186H176.215V103.826C176.215 94.4033 171.612 89.8183 162.142 89.8183H135.188V136.186H144.828V97.7H162.142C164.916 97.7 166.556 99.3609 166.556 102.121L166.568 136.186Z" fill="#231F20"/>
<path d="M195.793 109.106C186.385 109.106 181.808 113.078 181.808 121.244V123.031C181.808 131.873 186.385 136.186 195.793 136.186H223.535V103.826C223.535 94.4033 218.964 89.8183 209.55 89.8183H185.459V97.7H209.531C212.306 97.7 213.945 99.3609 213.945 102.121V109.099L195.793 109.106ZM213.958 128.311H195.793C191.801 128.311 191.379 125.785 191.379 124.73V119.457C191.379 116.697 192.987 115.112 195.793 115.112H213.958V128.311Z" fill="#231F20"/>
<path d="M100.34 109.106C90.9323 109.106 86.3611 113.078 86.3611 121.244V123.031C86.3611 131.873 90.9323 136.186 100.34 136.186H128.082V103.826C128.082 94.4033 123.511 89.8183 114.097 89.8183H90.0055V97.7H114.097C116.872 97.7 118.511 99.3609 118.511 102.121V109.099L100.34 109.106ZM118.511 128.311H100.34C96.3484 128.311 95.926 125.785 95.926 124.73V119.457C95.926 116.697 97.5338 115.112 100.34 115.112H118.511V128.311Z" fill="#231F20"/>
<path d="M291.75 89.8183C282.343 89.8183 277.771 94.1254 277.771 102.98V122.179C277.771 131.734 282.242 136.186 291.838 136.186H315.86V128.311H291.838C289.064 128.311 287.424 126.65 287.424 123.89V116.81H305.589C314.997 116.81 319.568 112.87 319.568 104.761V102.98C319.568 94.138 314.997 89.8183 305.589 89.8183H291.75ZM305.577 110.805H287.412V101.281C287.412 100.201 287.834 97.6936 291.75 97.6936H305.577C309.492 97.6936 309.915 100.22 309.915 101.281V106.459C309.915 109.219 308.332 110.805 305.577 110.805Z" fill="#231F20"/>
<path d="M325.041 136.186H334.688V101.957C334.688 99.2915 336.34 97.6936 339.101 97.6936H347.657V89.8183H339.107C329.511 89.8183 325.041 94.2391 325.041 103.655V136.186Z" fill="#231F20"/>
<path d="M71.5755 136.685H81.0835V78.2105H65.6865L49.6526 119.892L33.7827 78.2105H18.2154V136.685H27.7172V87.7342H28.2846L28.3351 87.8858L46.1533 136.685H53.1393L71.008 87.7342H71.5691L71.5755 136.685Z" fill="#231F20"/>
<path d="M234.058 155H255.035C266.561 155 271.479 150.788 271.479 140.916V90.2035H245.054C230.212 90.2035 228.611 106.579 228.611 113.621C228.611 121.901 230.748 135.782 245.054 135.782H261.195V143.076C260.88 148.514 256.076 148.514 253.768 148.514H234.058V155ZM261.17 127.401H246.233C238.623 127.401 238.623 116.899 238.623 113.444C238.623 109.769 238.623 98.5841 246.233 98.5841H261.195L261.17 127.401Z" fill="#231F20"/>
<path d="M217.646 32.6508H227.261V54.6286C227.209 57.3138 227.463 59.9962 228.018 62.6239C228.403 64.5368 229.341 66.294 230.716 67.6763C232.228 69.0291 234.075 69.9516 236.063 70.3477C238.94 70.9369 241.873 71.2037 244.808 71.1435H251.05L252.557 64.007H244.714C243.276 64.0341 241.839 63.9135 240.426 63.647C239.409 63.4667 238.475 62.972 237.753 62.2324C237.059 61.3762 236.622 60.3403 236.492 59.2452C236.258 57.633 236.153 56.0048 236.177 54.3759V32.6508H249.695V25.3059H236.177V16.2307L227.261 17.3674V25.3059H217.646V32.6508Z" fill="#231F20"/>
</g>
<defs>
<clipPath id="clip0">
<rect width="359" height="155" fill="white"/>
</clipPath>
</defs>
</svg>
