<svg width="67" height="31" viewBox="-13 -7 93 45" fill="none" xmlns="http://www.w3.org/2000/svg">
<g clip-path="url(#clip0)">
<path d="M22.4706 4.04058C22.776 4.04058 23.0237 3.77479 23.0237 3.44692C23.0237 3.11906 22.776 2.85327 22.4706 2.85327C22.1652 2.85327 21.9175 3.11906 21.9175 3.44692C21.9175 3.77479 22.1652 4.04058 22.4706 4.04058Z" fill="#3C8DBC"/>
<path d="M25.4842 3.95224C25.891 3.95224 26.2208 3.59823 26.2208 3.16154C26.2208 2.72486 25.891 2.37085 25.4842 2.37085C25.0774 2.37085 24.7476 2.72486 24.7476 3.16154C24.7476 3.59823 25.0774 3.95224 25.4842 3.95224Z" fill="#3C8DBC"/>
<path d="M28.6108 3.72861C29.1196 3.72861 29.5321 3.28582 29.5321 2.73961C29.5321 2.1934 29.1196 1.75061 28.6108 1.75061C28.1019 1.75061 27.6894 2.1934 27.6894 2.73961C27.6894 3.28582 28.1019 3.72861 28.6108 3.72861Z" fill="#3C8DBC"/>
<path d="M31.8502 3.61879C32.4605 3.61879 32.9552 3.08778 32.9552 2.43274C32.9552 1.77771 32.4605 1.2467 31.8502 1.2467C31.24 1.2467 30.7453 1.77771 30.7453 2.43274C30.7453 3.08778 31.24 3.61879 31.8502 3.61879Z" fill="#3C8DBC"/>
<path d="M35.3168 3.39516C36.0291 3.39516 36.6065 2.77536 36.6065 2.01081C36.6065 1.24626 36.0291 0.626465 35.3168 0.626465C34.6046 0.626465 34.0272 1.24626 34.0272 2.01081C34.0272 2.77536 34.6046 3.39516 35.3168 3.39516Z" fill="#3C8DBC"/>
<path d="M38.8964 3.1653C39.7107 3.1653 40.3709 2.45672 40.3709 1.58265C40.3709 0.708577 39.7107 0 38.8964 0C38.0821 0 37.422 0.708577 37.422 1.58265C37.422 2.45672 38.0821 3.1653 38.8964 3.1653Z" fill="#3C8DBC"/>
<path d="M3.46897 14.2565H5.48469V4.79469H8.82069V3.2373H-0.00469971V4.79469H3.46897V14.2565Z" fill="white"/>
<path d="M8.31818 14.2565H10.115V7.41431C10.115 6.88129 10.4233 6.56173 10.9387 6.56173H12.5355V4.98413H10.9387C9.14777 4.98413 8.31348 5.86829 8.31348 7.7503L8.31818 14.2565Z" fill="white"/>
<path d="M15.2809 8.84034C13.5252 8.84034 12.6709 9.63483 12.6709 11.268V11.6242C12.6709 13.3925 13.5252 14.2565 15.2809 14.2565H20.4584V7.7844C20.4584 5.89987 19.6041 4.98413 17.8485 4.98413H13.3522V6.55794H17.8449C18.3615 6.55794 18.6686 6.89013 18.6686 7.4421V8.84034H15.2809ZM18.671 12.6814H15.2809C14.536 12.6814 14.4572 12.1762 14.4572 11.9652V10.9105C14.4572 10.3586 14.7584 10.0415 15.2809 10.0415H18.671V12.6814Z" fill="white"/>
<path d="M27.6082 14.2565H29.4133V7.7844C29.4133 5.89987 28.5543 4.98413 26.7868 4.98413H21.7516V14.2565H23.5509V6.55794H26.7821C27.2999 6.55794 27.6058 6.89013 27.6058 7.4421L27.6082 14.2565Z" fill="white"/>
<path d="M30.3547 14.2565H34.7697C36.476 14.2565 37.1408 13.4708 37.1408 11.4549C37.1408 9.5603 36.4842 8.82392 34.8003 8.82392H32.9176C32.0939 8.82392 32.0939 8.00291 32.0939 7.73388C32.0939 6.77645 32.5422 6.57562 32.9176 6.57562H36.8572V4.98413H32.7293C31.0442 4.98413 30.357 5.79503 30.357 7.7844C30.357 9.65377 31.0136 10.3813 32.6975 10.3813H34.5803C35.1286 10.3813 35.404 10.7602 35.404 11.5055C35.404 12.4629 34.9545 12.6637 34.5803 12.6637H30.3547V14.2565Z" fill="white"/>
<path d="M38.1021 14.2565H39.9025V4.98413H38.1021V14.2565Z" fill="white"/>
<path d="M47.7289 14.2565H49.5351V4.98413H47.7348L47.7289 14.2565Z" fill="white"/>
<path d="M53.2253 4.98413C52.3699 4.98413 50.3788 5.42495 50.3788 9.51736C50.3788 10.3093 50.5165 14.2565 53.2253 14.2565H55.7106C58.417 14.2565 58.5582 10.3093 58.5582 9.51736C58.5582 5.42495 56.5672 4.98413 55.7106 4.98413H53.2253ZM55.5046 12.6814H53.4313C52.5581 12.6814 52.1157 11.628 52.1157 9.55146C52.1157 7.56589 52.5581 6.55794 53.4313 6.55794H55.5046C56.3789 6.55794 56.8214 7.56841 56.8214 9.55146C56.8214 11.628 56.3789 12.6814 55.5046 12.6814Z" fill="white"/>
<path d="M65.1996 14.2565H66.9988V7.7844C66.9988 5.89987 66.141 4.98413 64.3736 4.98413H59.3419V14.2565H61.1423V6.55794H64.3736C64.8913 6.55794 65.1973 6.89013 65.1973 7.4421L65.1996 14.2565Z" fill="white"/>
<path d="M31.0865 27.2372H32.8869V20.7652C32.8869 18.8806 32.0279 17.9636 30.2605 17.9636H25.23V27.2372H27.0292V19.54H30.2605C30.7782 19.54 31.0842 19.8722 31.0842 20.4241L31.0865 27.2372Z" fill="white"/>
<path d="M36.5407 21.8211C34.785 21.8211 33.9307 22.6156 33.9307 24.2488V24.6062C33.9307 26.3745 34.785 27.2372 36.5407 27.2372H41.7183V20.7652C41.7183 18.8806 40.8651 17.9636 39.1083 17.9636H34.612V19.54H39.1048C39.6225 19.54 39.9285 19.8722 39.9285 20.4241V21.8198L36.5407 21.8211ZM39.9308 25.6622H36.5407C35.7958 25.6622 35.717 25.1569 35.717 24.946V23.8913C35.717 23.3393 36.017 23.0223 36.5407 23.0223H39.9308V25.6622Z" fill="white"/>
<path d="M18.7263 21.8211C16.9707 21.8211 16.1176 22.6156 16.1176 24.2488V24.6062C16.1176 26.3745 16.9707 27.2372 18.7263 27.2372H23.9039V20.7652C23.9039 18.8806 23.0508 17.9636 21.2939 17.9636H16.7977V19.54H21.2939C21.8117 19.54 22.1176 19.8722 22.1176 20.4241V21.8198L18.7263 21.8211ZM22.1176 25.6622H18.7263C17.9815 25.6622 17.9026 25.1569 17.9026 24.946V23.8913C17.9026 23.3393 18.2027 23.0223 18.7263 23.0223H22.1176V25.6622Z" fill="white"/>
<path d="M54.4491 17.9636C52.6935 17.9636 51.8403 18.825 51.8403 20.5959V24.4357C51.8403 26.3467 52.6746 27.2372 54.4656 27.2372H58.9489V25.6622H54.4656C53.9478 25.6622 53.6419 25.33 53.6419 24.778V23.3621H57.032C58.7877 23.3621 59.6408 22.5739 59.6408 20.9521V20.5959C59.6408 18.8276 58.7877 17.9636 57.032 17.9636H54.4491ZM57.0297 22.1609H53.6395V20.2561C53.6395 20.0401 53.7184 19.5387 54.4491 19.5387H57.0297C57.7604 19.5387 57.8392 20.0439 57.8392 20.2561V21.2919C57.8392 21.8438 57.5439 22.1609 57.0297 22.1609Z" fill="white"/>
<path d="M60.6622 27.2372H62.4626V20.3913C62.4626 19.8583 62.7709 19.5387 63.2863 19.5387H64.8831V17.9636H63.2875C61.4965 17.9636 60.6622 18.8478 60.6622 20.7311V27.2372Z" fill="white"/>
<path d="M13.3581 27.337H15.1326V15.6421H12.259L9.26665 23.9785L6.30485 15.6421H3.39954V27.337H5.17285V17.5468H5.27875L5.28817 17.5771L8.61357 27.337H9.91738L13.2522 17.5468H13.3569L13.3581 27.337Z" fill="white"/>
<path d="M43.6822 30.9999H47.5971C49.7481 30.9999 50.666 30.1574 50.666 28.1832V18.0406H45.7343C42.9644 18.0406 42.6655 21.3158 42.6655 22.7242C42.6655 24.3801 43.0644 27.1564 45.7343 27.1564H48.7467V28.6152C48.6879 29.7027 47.7913 29.7027 47.3606 29.7027H43.6822V30.9999ZM48.742 25.4802H45.9544C44.5341 25.4802 44.5341 23.3797 44.5341 22.6888C44.5341 21.9537 44.5341 19.7168 45.9544 19.7168H48.7467L48.742 25.4802Z" fill="white"/>
<path d="M40.6191 6.53013H42.4136V10.9257C42.404 11.4627 42.4514 11.9992 42.5548 12.5247C42.6267 12.9073 42.8018 13.2588 43.0585 13.5352C43.3407 13.8058 43.6852 13.9903 44.0563 14.0695C44.5932 14.1873 45.1406 14.2407 45.6884 14.2287H46.8534L47.1346 12.8014H45.6708C45.4025 12.8068 45.1344 12.7827 44.8706 12.7294C44.6809 12.6933 44.5064 12.5944 44.3717 12.4464C44.2422 12.2752 44.1606 12.068 44.1364 11.849C44.0927 11.5266 44.0731 11.2009 44.0775 10.8752V6.53013H46.6004V5.06115H44.0775V3.24609L42.4136 3.47345V5.06115H40.6191V6.53013Z" fill="white"/>
</g>
<defs>
<clipPath id="clip0">
<rect width="67" height="31" fill="white"/>
</clipPath>
</defs>
</svg>
