<svg xmlns="http://www.w3.org/2000/svg"> <g id="otherShapeId"  fill='#1f77b4'> <g id="svg_1"><polygon id="svg_7" points="28.4,69.3 22.8,67.1 7.4,51.7 7.4,10 11.3,6 89.7,6 105.2,21.5 107.4,27 107.4,69.3" clip-rule="evenodd" stroke="#FFFFFF" fill="#FFFFFF" fill-rule="evenodd"/> <polygon id="svg_2" points="11.3,6 89.7,6 105.2,21.5 28.4,21.5 26.8,21.5" clip-rule="evenodd" fill-rule="evenodd"/> <path id="svg_3" d="m107.4,27l0,22.9c-2.3,-1.8 -5.2,-2.8 -8.3,-2.8c-3.8,0 -7.3,1.6 -9.8,4.1l0,0l0,0c-2.5,2.5 -4.1,6 -4.1,9.8c0,3.1 1,6 2.8,8.3l-59.6,0l0,-42.3l79,0l0,0zm-6.4,32c-0.5,-0.5 -1.2,-0.8 -2,-0.8c-0.8,0 -1.5,0.3 -2,0.8l0,0c-0.5,0.5 -0.8,1.2 -0.8,2c0,0.8 0.3,1.5 0.8,2l0,0c0.5,0.5 1.2,0.8 2,0.8c0.8,0 1.5,-0.3 2,-0.8l0,0c0.5,-0.5 0.8,-1.2 0.8,-2c0,-0.8 -0.3,-1.5 -0.8,-2l0,0z" clip-rule="evenodd" fill-rule="evenodd"/><path id="svg_4" d="m99.1,69.4c4.6,0 8.3,-3.7 8.3,-8.3c0,-4.6 -3.7,-8.3 -8.3,-8.3c-4.6,0 -8.3,3.7 -8.3,8.3c-0.1,4.5 3.7,8.3 8.3,8.3z" fill="#00FF00" clip-rule="evenodd" fill-rule="evenodd"/><polygon id="svg_5" points="22.8,67.1 7.4,51.7 7.4,10 22.8,25.4 22.8,27" clip-rule="evenodd" fill-rule="evenodd"/></g></g></svg>