<?xml version="1.0" encoding="utf-8"?>
<!-- Generator: Adobe Illustrator 19.2.1, SVG Export Plug-In . SVG Version: 6.00 Build 0)  -->
<svg version="1.1" id="Layer_1" xmlns="http://www.w3.org/2000/svg" xmlns:xlink="http://www.w3.org/1999/xlink" x="0px" y="0px"
	 viewBox="0 0 16.3 16.3" style="enable-background:new 0 0 16.3 16.3;" xml:space="preserve">
<style type="text/css">
	.st0{display:none;}
	.st1{display:inline;}
	.st2{fill:#FFFFFF;}
	.st3{fill:#1F77B4;}
	.st4{display:inline;fill:#1F77B4;}
	.st5{display:inline;fill:#FFFFFF;stroke:#FFFFFF;stroke-width:0.4458;}
	.st6{display:inline;fill:#00FF00;}
	.st7{fill:#FFFFFF;stroke:#FFFFFF;stroke-width:0.1583;}
	.st8{fill:#00FF00;}
	.st9{fill:#FFFFFF;stroke:#FFFFFF;stroke-width:0.1504;}
	.st10{fill:#FFFFFF;stroke:#FFFFFF;stroke-width:0.2085;}
	.st11{fill:#FFFFFF;stroke:#FFFFFF;stroke-width:0.153;}
	.st12{fill:#696A6D;}
	.st13{fill:#FFFFFF;stroke:#FFFFFF;stroke-width:0.1513;}
</style>
<g id="applicationShapeId" class="st0">
	<g id="svg_1" class="st1">
		<path id="svg_3" class="st2" d="M8.1,0.5c4.2,0,7.7,3.4,7.7,7.7s-3.4,7.6-7.7,7.6s-7.6-3.4-7.6-7.7S3.9,0.5,8.1,0.5
			C8.1,0.5,8.1,0.5,8.1,0.5z"/>
		<path id="svg_2" class="st3" d="M8.1,0.5c4.2,0,7.7,3.4,7.7,7.7s-3.4,7.6-7.7,7.6s-7.6-3.4-7.6-7.7S3.9,0.5,8.1,0.5
			C8.1,0.5,8.1,0.5,8.1,0.5z M10.4,11.7c0.1,0.1,0.1,0.3,0.2,0.5c0.1,0.2,0.2,0.3,0.2,0.4s0.2,0.2,0.3,0.2c0.1,0.1,0.2,0.1,0.4,0.1
			c0.2,0,0.5-0.1,0.6-0.3c0.2-0.2,0.3-0.4,0.3-0.6c0-0.2-0.1-0.5-0.3-1l-2.4-6C9.6,4.8,9.5,4.6,9.4,4.4C9.4,4.2,9.3,4.1,9.2,3.9
			C9.1,3.7,8.9,3.6,8.7,3.5C8.6,3.4,8.3,3.4,8.1,3.4c-0.3,0-0.5,0-0.6,0.2C7.3,3.6,7.1,3.7,7,3.9C6.9,4.1,6.8,4.3,6.7,4.5
			C6.6,4.7,6.5,4.9,6.5,5.1l-2.3,6C4,11.4,4,11.6,3.9,11.7c0,0.1-0.1,0.3-0.1,0.4c0,0.2,0.1,0.4,0.3,0.6C4.3,12.9,4.5,13,4.8,13
			c0.3,0,0.5-0.1,0.6-0.2s0.3-0.5,0.4-0.9l0.4-1.2H10L10.4,11.7L10.4,11.7z M6.7,9.2h2.8L8.1,5.4C8.1,5.4,6.7,9.2,6.7,9.2z"/>
	</g>
</g>
<g id="databaseShapeId" class="st0">
	<path id="svg_1_1_" class="st4" d="M0.7,2.9c0-1.3,3.4-2.4,7.6-2.4S16,1.6,16,2.9s-3.4,2.4-7.6,2.4c-0.5,0-0.5,1.5,0,1.5
		c2.2,0,4.2-0.2,5.6-0.7c0.8-0.3,1.5-0.7,2-1c0,8.7,0,5.9,0,8.4c0,1.3-3.4,2.4-7.6,2.4s-7.6-1.1-7.6-2.4C0.7,9.9,0.7,6.4,0.7,2.9z"
		/>
</g>
<g id="svg_1_2_" class="st0">
	<polygon id="svg_7" class="st5" points="3.7,13.2 2.9,12.9 0.5,10.6 0.5,4.2 1.1,3.6 13,3.6 15.4,6 15.7,6.8 15.7,13.2 	"/>
	<polygon id="svg_2_1_" class="st4" points="1.1,3.6 13,3.6 15.4,6 3.7,6 3.5,6 	"/>
	<polygon id="svg_3_1_" class="st4" points="2.9,12.9 0.5,10.6 0.5,4.2 2.9,6.6 2.9,6.8 	"/>
	<g id="svg_4" class="st1">
		<path id="svg_5" class="st3" d="M3.7,6.8v6.4h9c-0.3-0.3-0.4-0.8-0.4-1.3c0-0.6,0.2-1.1,0.6-1.5l0,0l0,0c0.4-0.4,0.9-0.6,1.5-0.6
			c0.5,0,0.9,0.2,1.3,0.4V6.8L3.7,6.8L3.7,6.8L3.7,6.8L3.7,6.8L3.7,6.8L3.7,6.8L3.7,6.8C3.7,6.8,3.7,6.8,3.7,6.8z M5.9,10.6
			c-0.3,0-0.6-0.3-0.6-0.6c0-0.3,0.3-0.6,0.6-0.6c0.3,0,0.6,0.3,0.6,0.6C6.5,10.3,6.2,10.6,5.9,10.6z M8.7,10.6
			c-0.3,0-0.6-0.3-0.6-0.6c0-0.3,0.3-0.6,0.6-0.6C9,9.4,9.3,9.7,9.3,10C9.3,10.3,9,10.6,8.7,10.6z M11.5,10.6
			c-0.3,0-0.6-0.3-0.6-0.6c0-0.3,0.3-0.6,0.6-0.6c0.3,0,0.6,0.3,0.6,0.6C12.1,10.3,11.8,10.6,11.5,10.6z"/>
		<path id="svg_6" class="st3" d="M14.7,11.7c-0.1-0.1-0.2-0.1-0.3-0.1s-0.2,0-0.3,0.1l0,0C14.1,11.7,14,11.8,14,12s0,0.2,0.1,0.3
			l0,0c0.1,0.1,0.2,0.1,0.3,0.1s0.2,0,0.3-0.1l0,0c0.1-0.1,0.1-0.2,0.1-0.3S14.8,11.7,14.7,11.7L14.7,11.7z"/>
	</g>
	<path id="svg_7_1_" class="st6" d="M14.5,13.2c0.7,0,1.3-0.6,1.3-1.3s-0.6-1.3-1.3-1.3c-0.7,0-1.3,0.6-1.3,1.3
		C13.2,12.7,13.8,13.2,14.5,13.2z"/>
</g>
<g id="otherShapeId" class="st0">
	<g id="svg_1_3_" class="st1">
		<polygon id="svg_7_2_" class="st7" points="3.6,12.4 2.7,12 0.2,9.6 0.2,3 0.9,2.4 13.3,2.4 15.7,4.8 16.1,5.7 16.1,12.4 		"/>
		<polygon id="svg_2_2_" class="st3" points="0.9,2.4 13.3,2.4 15.7,4.8 3.6,4.8 3.3,4.8 		"/>
		<path id="svg_3_2_" class="st3" d="M16.1,5.7v3.6c-0.4-0.3-0.8-0.4-1.3-0.4c-0.6,0-1.2,0.3-1.6,0.6l0,0l0,0
			c-0.4,0.4-0.6,0.9-0.6,1.6c0,0.5,0.2,0.9,0.4,1.3H3.6V5.7L16.1,5.7C16.1,5.7,16.1,5.7,16.1,5.7z M15.1,10.7
			c-0.1-0.1-0.2-0.1-0.3-0.1s-0.2,0-0.3,0.1l0,0c-0.1,0.1-0.1,0.2-0.1,0.3s0,0.2,0.1,0.3l0,0c0.1,0.1,0.2,0.1,0.3,0.1s0.2,0,0.3-0.1
			l0,0c0.1-0.1,0.1-0.2,0.1-0.3S15.1,10.8,15.1,10.7L15.1,10.7z"/>
		<path id="svg_4_1_" class="st8" d="M14.8,12.4c0.7,0,1.3-0.6,1.3-1.3s-0.6-1.3-1.3-1.3c-0.7,0-1.3,0.6-1.3,1.3
			C13.4,11.8,14,12.4,14.8,12.4z"/>
		<polygon id="svg_5_1_" class="st3" points="2.7,12 0.2,9.6 0.2,3 2.7,5.4 2.7,5.7 		"/>
	</g>
</g>
<g id="serverPhysicalShapeId" class="st0">
	<g id="svg_1_4_" class="st1">
		<polygon id="svg_7_3_" class="st9" points="12.8,15.7 3.8,15.7 3,15.4 0.7,13 0.7,1.3 1.3,0.7 13.1,0.7 15.4,3 15.7,3.8 
			15.7,12.8 15.7,15.7 		"/>
		<polygon id="svg_2_3_" class="st3" points="1.5,0.6 13.1,0.7 15.4,3 4,3 3.8,3 		"/>
		<path id="svg_3_3_" class="st3" d="M15.7,4v8.8c-0.3-0.3-0.8-0.4-1.2-0.4c-0.6,0-1.1,0.2-1.4,0.6l0,0l0,0
			c-0.4,0.4-0.6,0.9-0.6,1.5c0,0.5,0.2,0.9,0.4,1.2H4.1V4H15.7L15.7,4z M14.8,14.2c-0.1-0.1-0.2-0.1-0.3-0.1s-0.2,0-0.3,0.1l0,0
			c-0.1,0.1-0.1,0.2-0.1,0.3s0,0.2,0.1,0.3l0,0c0.1,0.1,0.2,0.1,0.3,0.1s0.2,0,0.3-0.1l0,0c0.1-0.1,0.1-0.2,0.1-0.3
			S14.9,14.2,14.8,14.2L14.8,14.2z"/>
		<path id="svg_4_2_" class="st8" d="M14.5,15.7c0.7,0,1.2-0.6,1.2-1.2c0-0.7-0.6-1.2-1.2-1.2c-0.7,0-1.2,0.6-1.2,1.2
			C13.2,15.1,13.8,15.7,14.5,15.7z"/>
		<polygon id="svg_5_2_" class="st3" points="3,15.4 0.7,13.1 0.7,1.5 3,3.8 3,4 		"/>
	</g>
</g>
<g id="serverVirtualShapeId" class="st0">
	<g id="svg_1_5_" class="st1">
		<path id="svg_3_5_" class="st10" d="M0.6,0.6v15.1h15V0.6C15.6,0.6,0.6,0.6,0.6,0.6z"/>
		<path id="svg_2_4_" class="st3" d="M0.6,0.6h15v11.3c-0.4-0.3-1.1-0.4-1.6-0.4c-0.3,0-1.1,0-1.7,0.6c-0.9,0.9-0.8,1.8-0.8,2
			c0,0.6,0.3,1.2,0.5,1.5H0.6V0.6L0.6,0.6z M14.6,14.1c-0.1-0.1-0.2-0.1-0.3-0.1s-0.2,0-0.3,0.1l0,0c-0.1,0.1-0.1,0.2-0.1,0.3
			c0,0.1,0,0.2,0.1,0.3l0,0c0.1,0.1,0.2,0.1,0.3,0.1s0.2,0,0.3-0.1l0,0c0.1-0.1,0.1-0.2,0.1-0.3C14.7,14.3,14.7,14.2,14.6,14.1
			L14.6,14.1z"/>
		<path id="svg_3_4_" class="st8" d="M13.9,15.8c0.9,0,1.6-0.7,1.6-1.6s-0.7-1.6-1.6-1.6s-1.6,0.7-1.6,1.6
			C12.3,15.1,13.1,15.8,13.9,15.8z"/>
	</g>
</g>
<g id="storageLogicalShapeId" class="st0">
	<g id="svg_1_6_" class="st1">
		<path id="svg_3_7_" class="st11" d="M8.9,3.4h4.6V8H0.4V3.4H8.9z"/>
		<path id="svg_2_5_" class="st12" d="M7.5,3.4h1.4L8.9,3.5l0,0l0,0.1l0,0L8.3,4.3h-7C1,4.3,0.7,4.4,0.5,4.5V2.4
			c0-0.4,0.3-0.6,0.6-0.6h4.6c0.5,0,0.8,0.4,1,0.6C6.7,2.4,7.5,3.4,7.5,3.4z"/>
		<path id="svg_3_6_" class="st3" d="M8.7,5.2H1.3C0.8,5.2,0.5,5.5,0.5,6v7.8c0,0.4,0.4,0.8,0.8,0.8H15c0.4,0,0.8-0.4,0.8-0.8
			c0-3.6,0-6.1,0-9.7c0-0.4-0.3-0.6-0.6-0.6h-4.7c-0.5,0-0.8,0.4-1,0.6C9.5,4.1,8.7,5.2,8.7,5.2z"/>
	</g>
</g>
<g id="storagePhysicalShapeId">
	<g id="svg_1_7_">
		<path id="svg_8" class="st13" d="M0.6,2.9h15.1v11.7l-3.2,0.8L0.6,13.6V2.9z"/>
		<path id="svg_2_6_" class="st3" d="M8.2,5.4c4.2,0,7.6-1.1,7.6-2.4s-3.4-2.4-7.6-2.4S0.6,1.7,0.6,3S4,5.4,8.2,5.4L8.2,5.4z"/>
		<path id="svg_3_8_" class="st3" d="M0.6,10c0,1.3,3.4,2.4,7.6,2.4s7.6-1.1,7.6-2.4V8.3c-0.5,0.4-1.2,0.7-2,1
			c-1.5,0.5-3.4,0.9-5.6,0.9c-2.2,0-4.2-0.4-5.7-0.8C1.7,9.1,1.1,8.5,0.6,8.2L0.6,10L0.6,10z"/>
		<path id="svg_4_3_" class="st3" d="M13.7,6.1c-1.5,0.5-3.4,0.7-5.6,0.7C6,6.8,4,6.5,2.6,6.1c-0.8-0.3-1.5-0.6-2-1v2
			C1.9,8.1,4,9,8.2,9s5.9-0.7,7.6-1.9v-2C15.2,5.5,14.6,5.8,13.7,6.1z"/>
		<path id="svg_5_3_" class="st3" d="M0.6,13.4L0.6,13.4v-2c0.5,0.4,1.1,0.9,1.9,1.2C4,13.1,6,13.5,8.2,13.5c2.2,0,4.2-0.5,5.7-0.9
			c0.8-0.3,1.4-0.7,1.9-1.1v1.4c-0.3-0.3-0.8-0.4-1.3-0.4c-0.6,0-1.1,0.2-1.5,0.6l0,0c-0.4,0.4-0.6,0.9-0.6,1.5
			c0,0.3,0.1,0.6,0.2,0.8c-1.2,0.3-2.7,0.4-4.4,0.4C4,15.8,0.6,14.7,0.6,13.4L0.6,13.4L0.6,13.4z"/>
		<path id="svg_6_1_" class="st3" d="M14.2,14.9c0.3-0.1,0.5-0.2,0.7-0.3c0-0.1,0-0.2-0.1-0.3c-0.1-0.1-0.2-0.1-0.3-0.1
			s-0.2,0-0.3,0.1S14,14.4,14,14.6C14,14.7,14.1,14.8,14.2,14.9C14.2,14.9,14.2,14.9,14.2,14.9z"/>
		<path id="svg_7_4_" class="st8" d="M14.5,15.8c0.7,0,1.3-0.6,1.3-1.3c0-0.7-0.6-1.3-1.3-1.3c-0.7,0-1.3,0.6-1.3,1.3
			C13.2,15.2,13.8,15.8,14.5,15.8z"/>
	</g>
</g>
</svg>
