<svg xmlns="http://www.w3.org/2000/svg"> <g id="storageLogicalShapeId"  fill='#1f77b4'><g id="svg_1"><path id="svg_3" d="m64.3,20.7l30,0l0,30l-85.5,0l0,-30z" clip-rule="evenodd" stroke="#FFFFFF" fill="#FFFFFF" fill-rule="evenodd"/> <path id="svg_2" fill="#696A6D" d="m55.2,20.7l9.1,0l-0.4,0.5l0,0l-0.3,0.4l0,0l-3.7,4.8l-45.8,0c-1.9,0 -3.6,0.5 -5.2,1.3l0,-14c0,-2.3 1.9,-4.2 4.2,-4.2l30.3,0c3.5,0 5,2.4 6.4,4.2l5.4,7z" clip-rule="evenodd" fill-rule="evenodd"/><path id="svg_3" d="m62.6,32l-48.5,0c-2.8,0 -5.2,2.3 -5.2,5.2l0,51.1c0,2.8 2.3,5.2 5.2,5.2l89.7,0c2.8,0 5.2,-2.3 5.2,-5.2c0,-23.2 0,-40.1 0,-63.3c0,-2.3 -1.9,-4.2 -4.2,-4.2l-30.4,0c-3.5,0 -5,2.4 -6.4,4.2l-5.4,7z" clip-rule="evenodd" fill-rule="evenodd"/></g></g></svg>