<svg width="264" height="114" viewBox="0 0 264 114" fill="none" xmlns="http://www.w3.org/2000/svg">
<g clip-path="url(#clip0)">
<path d="M88.5409 14.8591C89.7445 14.8591 90.7201 13.8817 90.7201 12.676C90.7201 11.4703 89.7445 10.4929 88.5409 10.4929C87.3374 10.4929 86.3617 11.4703 86.3617 12.676C86.3617 13.8817 87.3374 14.8591 88.5409 14.8591Z" fill="#3C8DBC"/>
<path d="M100.415 14.5339C102.018 14.5339 103.318 13.2321 103.318 11.6262C103.318 10.0203 102.018 8.71851 100.415 8.71851C98.8123 8.71851 97.5128 10.0203 97.5128 11.6262C97.5128 13.2321 98.8123 14.5339 100.415 14.5339Z" fill="#3C8DBC"/>
<path d="M112.735 13.7118C114.74 13.7118 116.365 12.0835 116.365 10.0748C116.365 8.06619 114.74 6.43787 112.735 6.43787C110.73 6.43787 109.104 8.06619 109.104 10.0748C109.104 12.0835 110.73 13.7118 112.735 13.7118Z" fill="#3C8DBC"/>
<path d="M125.499 13.3077C127.904 13.3077 129.853 11.3549 129.853 8.9461C129.853 6.53728 127.904 4.58453 125.499 4.58453C123.095 4.58453 121.146 6.53728 121.146 8.9461C121.146 11.3549 123.095 13.3077 125.499 13.3077Z" fill="#3C8DBC"/>
<path d="M139.159 12.4855C141.965 12.4855 144.241 10.2063 144.241 7.39471C144.241 4.58313 141.965 2.30389 139.159 2.30389C136.352 2.30389 134.077 4.58313 134.077 7.39471C134.077 10.2063 136.352 12.4855 139.159 12.4855Z" fill="#3C8DBC"/>
<path d="M153.263 11.6401C156.472 11.6401 159.073 9.03441 159.073 5.82007C159.073 2.60573 156.472 0 153.263 0C150.055 0 147.454 2.60573 147.454 5.82007C147.454 9.03441 150.055 11.6401 153.263 11.6401Z" fill="#3C8DBC"/>
<path d="M13.6686 52.4271H21.6112V17.6321H34.756V11.9049H-0.0186768V17.6321H13.6686V52.4271Z" fill="#231F20"/>
<path d="M32.7762 52.4271H39.8564V27.2657C39.8564 25.3055 41.0712 24.1303 43.102 24.1303H49.3939V18.3289H43.102C36.0451 18.3289 32.7577 21.5803 32.7577 28.5012L32.7762 52.4271Z" fill="#231F20"/>
<path d="M60.2111 32.5098C53.2933 32.5098 49.9271 35.4314 49.9271 41.4373V42.7471C49.9271 49.25 53.2933 52.4271 60.2111 52.4271H80.6123V28.6266C80.6123 21.6964 77.2461 18.3289 70.3283 18.3289H52.6117V24.1164H70.3143C72.3498 24.1164 73.56 25.338 73.56 27.3679V32.5098H60.2111ZM73.5693 46.6349H60.2111C57.2762 46.6349 56.9655 44.777 56.9655 44.0013V40.1228C56.9655 38.0929 58.1525 36.9271 60.2111 36.9271H73.5693V46.6349Z" fill="#231F20"/>
<path d="M108.784 52.4271H115.897V28.6266C115.897 21.6964 112.512 18.3289 105.548 18.3289H85.708V52.4271H92.7974V24.1164H105.53C107.57 24.1164 108.775 25.338 108.775 27.3679L108.784 52.4271Z" fill="#231F20"/>
<path d="M119.606 52.4271H137.003C143.726 52.4271 146.346 49.538 146.346 42.1247C146.346 35.1574 143.759 32.4494 137.124 32.4494H129.705C126.459 32.4494 126.459 29.4302 126.459 28.4408C126.459 24.92 128.226 24.1814 129.705 24.1814H145.228V18.3289H128.963C122.324 18.3289 119.616 21.3109 119.616 28.6266C119.616 35.5011 122.203 38.1766 128.838 38.1766H136.257C138.417 38.1766 139.502 39.57 139.502 42.3105C139.502 45.8314 137.731 46.5699 136.257 46.5699H119.606V52.4271Z" fill="#231F20"/>
<path d="M150.134 52.4271H157.228V18.3289H150.134V52.4271Z" fill="#231F20"/>
<path d="M188.066 52.4271H195.183V18.3289H188.089L188.066 52.4271Z" fill="#231F20"/>
<path d="M209.724 18.3289C206.353 18.3289 198.508 19.9499 198.508 34.9994C198.508 37.9118 199.05 52.4271 209.724 52.4271H219.516C230.18 52.4271 230.737 37.9118 230.737 34.9994C230.737 19.9499 222.892 18.3289 219.516 18.3289H209.724ZM218.705 46.6349H210.535C207.095 46.6349 205.351 42.7611 205.351 35.1248C205.351 27.8231 207.095 24.1164 210.535 24.1164H218.705C222.15 24.1164 223.893 27.8323 223.893 35.1248C223.893 42.7611 222.15 46.6349 218.705 46.6349Z" fill="#231F20"/>
<path d="M256.906 52.4271H263.995V28.6266C263.995 21.6964 260.615 18.3289 253.651 18.3289H233.825V52.4271H240.919V24.1164H253.651C255.691 24.1164 256.897 25.338 256.897 27.3679L256.906 52.4271Z" fill="#231F20"/>
<path d="M122.49 100.163H129.584V76.3623C129.584 69.4321 126.2 66.0599 119.235 66.0599H99.4137V100.163H106.503V71.8567H119.235C121.275 71.8567 122.481 73.0783 122.481 75.1082L122.49 100.163Z" fill="#231F20"/>
<path d="M143.981 80.2454C137.063 80.2454 133.697 83.1671 133.697 89.1729V90.4874C133.697 96.9903 137.063 100.163 143.981 100.163H164.382V76.3623C164.382 69.4321 161.021 66.0599 154.098 66.0599H136.382V71.8567H154.084C156.124 71.8567 157.33 73.0783 157.33 75.1082V80.2408L143.981 80.2454ZM157.339 94.3706H143.981C141.046 94.3706 140.736 92.5126 140.736 91.7369V87.8584C140.736 85.8286 141.918 84.6627 143.981 84.6627H157.339V94.3706Z" fill="#231F20"/>
<path d="M73.7873 80.2454C66.8695 80.2454 63.5079 83.1671 63.5079 89.1729V90.4874C63.5079 96.9903 66.8695 100.163 73.7873 100.163H94.1885V76.3623C94.1885 69.4321 90.8269 66.0599 83.9044 66.0599H66.1879V71.8567H83.9044C85.9445 71.8567 87.1501 73.0783 87.1501 75.1082V80.2408L73.7873 80.2454ZM87.1501 94.3706H73.7873C70.8523 94.3706 70.5417 92.5126 70.5417 91.7369V87.8584C70.5417 85.8286 71.724 84.6627 73.7873 84.6627H87.1501V94.3706Z" fill="#231F20"/>
<path d="M214.546 66.0599C207.628 66.0599 204.266 69.2277 204.266 75.7399V89.8604C204.266 96.8881 207.554 100.163 214.611 100.163H232.276V94.3706H214.611C212.571 94.3706 211.365 93.149 211.365 91.1192V85.9122H224.723C231.641 85.9122 235.003 83.0138 235.003 77.0497V75.7399C235.003 69.237 231.641 66.0599 224.723 66.0599H214.546ZM224.714 81.4949H211.356V74.4904C211.356 73.6961 211.666 71.8521 214.546 71.8521H224.714C227.593 71.8521 227.904 73.71 227.904 74.4904V78.2992C227.904 80.329 226.74 81.4949 224.714 81.4949Z" fill="#231F20"/>
<path d="M239.027 100.163H246.121V74.9874C246.121 73.0272 247.336 71.8521 249.367 71.8521H255.659V66.0599H249.371C242.314 66.0599 239.027 69.3113 239.027 76.2369V100.163Z" fill="#231F20"/>
<path d="M52.6348 100.53H59.6269V57.5226H48.3042L36.5133 88.179L24.843 57.5226H13.3951V100.53H20.3825V64.5271H20.7998L20.8369 64.6386L33.94 100.53H39.0774L52.2176 64.5271H52.6302L52.6348 100.53Z" fill="#231F20"/>
<path d="M172.121 114H187.547C196.023 114 199.639 110.902 199.639 103.642V66.3433H180.207C169.292 66.3433 168.115 78.3875 168.115 83.5666C168.115 89.656 169.687 99.8655 180.207 99.8655H192.077V105.23C191.845 109.23 188.312 109.23 186.615 109.23H172.121V114ZM192.058 93.7017H181.074C175.478 93.7017 175.478 85.9773 175.478 83.4365C175.478 80.7332 175.478 72.507 181.074 72.507H192.077L192.058 93.7017Z" fill="#231F20"/>
<path d="M160.052 24.0141H167.122V40.1784C167.084 42.1534 167.271 44.1263 167.679 46.0589C167.962 47.4658 168.652 48.7581 169.663 49.7748C170.775 50.7698 172.133 51.4482 173.595 51.7396C175.71 52.1729 177.867 52.3692 180.026 52.3249H184.616L185.724 47.0761H179.957C178.899 47.0961 177.843 47.0073 176.804 46.8114C176.056 46.6787 175.368 46.3149 174.838 45.7709C174.327 45.1412 174.006 44.3793 173.91 43.5739C173.739 42.3881 173.661 41.1906 173.679 39.9926V24.0141H183.619V18.6121H173.679V11.9374L167.122 12.7735V18.6121H160.052V24.0141Z" fill="#231F20"/>
</g>
<defs>
<clipPath id="clip0">
<rect width="264" height="114" fill="white"/>
</clipPath>
</defs>
</svg>
