<svg width="53" height="25" viewBox="0 0 53 25" fill="none" xmlns="http://www.w3.org/2000/svg">
<g clip-path="url(#clip0)">
<path d="M17.7753 3.25853C18.0169 3.25853 18.2127 3.04418 18.2127 2.77978C18.2127 2.51537 18.0169 2.30103 17.7753 2.30103C17.5336 2.30103 17.3378 2.51537 17.3378 2.77978C17.3378 3.04418 17.5336 3.25853 17.7753 3.25853Z" fill="#231F20"/>
<path d="M20.1591 3.18718C20.481 3.18718 20.7418 2.90169 20.7418 2.54952C20.7418 2.19735 20.481 1.91187 20.1591 1.91187C19.8373 1.91187 19.5764 2.19735 19.5764 2.54952C19.5764 2.90169 19.8373 3.18718 20.1591 3.18718Z" fill="#231F20"/>
<path d="M22.6324 3.00703C23.0349 3.00703 23.3612 2.64994 23.3612 2.20945C23.3612 1.76895 23.0349 1.41187 22.6324 1.41187C22.2298 1.41187 21.9035 1.76895 21.9035 2.20945C21.9035 2.64994 22.2298 3.00703 22.6324 3.00703Z" fill="#231F20"/>
<path d="M25.1949 2.91834C25.6777 2.91834 26.069 2.49011 26.069 1.96186C26.069 1.4336 25.6777 1.00537 25.1949 1.00537C24.7122 1.00537 24.3209 1.4336 24.3209 1.96186C24.3209 2.49011 24.7122 2.91834 25.1949 2.91834Z" fill="#231F20"/>
<path d="M27.9372 2.73794C28.5006 2.73794 28.9574 2.23811 28.9574 1.62153C28.9574 1.00496 28.5006 0.505127 27.9372 0.505127C27.3737 0.505127 26.917 1.00496 26.917 1.62153C26.917 2.23811 27.3737 2.73794 27.9372 2.73794Z" fill="#231F20"/>
<path d="M30.7688 2.55266C31.4129 2.55266 31.9351 1.98123 31.9351 1.27633C31.9351 0.571433 31.4129 0 30.7688 0C30.1246 0 29.6024 0.571433 29.6024 1.27633C29.6024 1.98123 30.1246 2.55266 30.7688 2.55266Z" fill="#231F20"/>
<path d="M2.74408 11.4973H4.33861V3.8668H6.97753V2.61084H-0.00374603V3.8668H2.74408V11.4973Z" fill="#231F20"/>
<path d="M6.58008 11.4972H8.00147V5.97936C8.00147 5.5495 8.24535 5.29179 8.65305 5.29179H9.9162V4.01953H8.65305C7.23632 4.01953 6.57635 4.73257 6.57635 6.25031L6.58008 11.4972Z" fill="#231F20"/>
<path d="M12.0879 7.12938C10.699 7.12938 10.0233 7.77009 10.0233 9.08717V9.37442C10.0233 10.8005 10.699 11.4972 12.0879 11.4972H16.1835V6.27781C16.1835 4.75803 15.5078 4.01953 14.1189 4.01953H10.5622V5.28873H14.1162C14.5248 5.28873 14.7677 5.55663 14.7677 6.00177V7.12938H12.0879ZM14.7696 10.227H12.0879C11.4986 10.227 11.4363 9.81956 11.4363 9.64945V8.7989C11.4363 8.35376 11.6746 8.09809 12.0879 8.09809H14.7696V10.227Z" fill="#231F20"/>
<path d="M21.8393 11.4972H23.2672V6.27781C23.2672 4.75803 22.5877 4.01953 21.1896 4.01953H17.2066V11.4972H18.6298V5.28873H21.1859C21.5954 5.28873 21.8375 5.55663 21.8375 6.00177L21.8393 11.4972Z" fill="#231F20"/>
<path d="M24.0119 11.4972H27.5044C28.8541 11.4972 29.38 10.8636 29.38 9.23792C29.38 7.70999 28.8606 7.11614 27.5286 7.11614H26.0392C25.3877 7.11614 25.3877 6.45403 25.3877 6.23707C25.3877 5.46495 25.7423 5.30299 26.0392 5.30299H29.1557V4.01953H25.8903C24.5574 4.01953 24.0137 4.67349 24.0137 6.27781C24.0137 7.78537 24.5332 8.3721 25.8652 8.3721H27.3545C27.7883 8.3721 28.0061 8.67768 28.0061 9.27867C28.0061 10.0508 27.6505 10.2127 27.3545 10.2127H24.0119V11.4972Z" fill="#231F20"/>
<path d="M30.1405 11.4972H31.5647V4.01953H30.1405V11.4972Z" fill="#231F20"/>
<path d="M37.7557 11.4972H39.1845V4.01953H37.7604L37.7557 11.4972Z" fill="#231F20"/>
<path d="M42.1036 4.01953C41.4269 4.01953 39.8519 4.37503 39.8519 7.67536C39.8519 8.31404 39.9608 11.4972 42.1036 11.4972H44.0696C46.2105 11.4972 46.3222 8.31404 46.3222 7.67536C46.3222 4.37503 44.7472 4.01953 44.0696 4.01953H42.1036ZM43.9067 10.227H42.2665C41.5758 10.227 41.2258 9.37747 41.2258 7.70286C41.2258 6.10159 41.5758 5.28873 42.2665 5.28873H43.9067C44.5983 5.28873 44.9483 6.10363 44.9483 7.70286C44.9483 9.37747 44.5983 10.227 43.9067 10.227Z" fill="#231F20"/>
<path d="M51.5758 11.4972H52.9991V6.27781C52.9991 4.75803 52.3205 4.01953 50.9224 4.01953H46.9421V11.4972H48.3663V5.28873H50.9224C51.332 5.28873 51.574 5.55663 51.574 6.00177L51.5758 11.4972Z" fill="#231F20"/>
<path d="M24.5908 21.9655H26.015V16.7461C26.015 15.2263 25.3355 14.4868 23.9374 14.4868H19.9581V21.9655H21.3813V15.7581H23.9374C24.347 15.7581 24.589 16.026 24.589 16.4711L24.5908 21.9655Z" fill="#231F20"/>
<path d="M28.9053 17.5977C27.5165 17.5977 26.8407 18.2384 26.8407 19.5555V19.8437C26.8407 21.2698 27.5165 21.9655 28.9053 21.9655H33.001V16.7461C33.001 15.2263 32.3261 14.4868 30.9364 14.4868H27.3797V15.7581H30.9336C31.3432 15.7581 31.5852 16.026 31.5852 16.4711V17.5967L28.9053 17.5977ZM31.587 20.6953H28.9053C28.3161 20.6953 28.2537 20.2879 28.2537 20.1177V19.2672C28.2537 18.8221 28.4911 18.5664 28.9053 18.5664H31.587V20.6953Z" fill="#231F20"/>
<path d="M14.8134 17.5977C13.4246 17.5977 12.7497 18.2384 12.7497 19.5555V19.8437C12.7497 21.2698 13.4246 21.9655 14.8134 21.9655H18.909V16.7461C18.909 15.2263 18.2342 14.4868 16.8444 14.4868H13.2877V15.7581H16.8444C17.254 15.7581 17.496 16.026 17.496 16.4711V17.5967L14.8134 17.5977ZM17.496 20.6953H14.8134C14.2241 20.6953 14.1618 20.2879 14.1618 20.1177V19.2672C14.1618 18.8221 14.3991 18.5664 14.8134 18.5664H17.496V20.6953Z" fill="#231F20"/>
<path d="M43.0717 14.4868C41.6829 14.4868 41.008 15.1815 41.008 16.6096V19.7062C41.008 21.2474 41.668 21.9655 43.0847 21.9655H46.6312V20.6953H43.0847C42.6752 20.6953 42.4331 20.4274 42.4331 19.9823V18.8404H45.1149C46.5037 18.8404 47.1785 18.2048 47.1785 16.8969V16.6096C47.1785 15.1836 46.5037 14.4868 45.1149 14.4868H43.0717ZM45.113 17.8717H42.4313V16.3356C42.4313 16.1614 42.4936 15.757 43.0717 15.757H45.113C45.6911 15.757 45.7534 16.1645 45.7534 16.3356V17.1709C45.7534 17.616 45.5198 17.8717 45.113 17.8717Z" fill="#231F20"/>
<path d="M47.9865 21.9655H49.4107V16.4446C49.4107 16.0147 49.6546 15.757 50.0623 15.757H51.3254V14.4868H50.0632C48.6465 14.4868 47.9865 15.1998 47.9865 16.7186V21.9655Z" fill="#231F20"/>
<path d="M10.5668 22.0459H11.9705V12.6145H9.69745L7.33033 19.3374L4.98741 12.6145H2.68918V22.0459H4.09195V14.1506H4.17572L4.18317 14.175L6.81371 22.0459H7.84508L10.4831 14.1506H10.5659L10.5668 22.0459Z" fill="#231F20"/>
<path d="M34.5546 25.0001H37.6515C39.353 25.0001 40.0791 24.3207 40.0791 22.7286V14.5491H36.1779C33.9867 14.5491 33.7503 17.1904 33.7503 18.3261C33.7503 19.6615 34.0659 21.9004 36.1779 21.9004H38.5609V23.077C38.5143 23.954 37.805 23.954 37.4644 23.954H34.5546V25.0001ZM38.5572 20.5487H36.352C35.2285 20.5487 35.2285 18.8548 35.2285 18.2976C35.2285 17.7048 35.2285 15.9008 36.352 15.9008H38.5609L38.5572 20.5487Z" fill="#231F20"/>
<path d="M32.1316 5.26633H33.5511V8.81113C33.5435 9.24424 33.5809 9.67688 33.6628 10.1007C33.7196 10.4092 33.8582 10.6926 34.0612 10.9156C34.2844 11.1338 34.557 11.2826 34.8505 11.3465C35.2752 11.4415 35.7082 11.4845 36.1416 11.4748H37.0631L37.2856 10.3238H36.1276C35.9154 10.3282 35.7033 10.3087 35.4947 10.2657C35.3446 10.2366 35.2066 10.1568 35.1 10.0375C34.9975 9.89945 34.933 9.73238 34.9138 9.55574C34.8793 9.29572 34.8638 9.03311 34.8673 8.77039V5.26633H36.863V4.08168H34.8673V2.61792L33.5511 2.80127V4.08168H32.1316V5.26633Z" fill="#231F20"/>
</g>
<defs>
<clipPath id="clip0">
<rect width="53" height="25" fill="white"/>
</clipPath>
</defs>
</svg>
