<svg xmlns="http://www.w3.org/2000/svg"> <g id="applicationShapeId" fill='#1f77b4'>  <g id="svg_1"> <path id="svg_3" d="m53.4,4.7c27.6,0 50,22.4 50,50c0,27.6 -22.4,50 -50,50c-27.6,0 -50,-22.4 -50,-50c0,-27.6 22.4,-50 50,-50l0,0z" fill="#ffffff" />  <path id="svg_2" d="m53.4,4.7c27.6,0 50,22.4 50,50c0,27.6 -22.4,50 -50,50c-27.6,0 -50,-22.4 -50,-50c0,-27.6 22.4,-50 50,-50l0,0zm14.9,73.4c0.4,0.9 0.8,2 1.4,3.2c0.5,1.2 1,2.1 1.5,2.7c0.5,0.6 1.1,1.1 1.7,1.4c0.7,0.4 1.5,0.5 2.5,0.5c1.6,0 3.1,-0.6 4.2,-1.7c1.2,-1.2 1.7,-2.5 1.7,-3.9c0,-1.4 -0.6,-3.5 -1.9,-6.5l-15.8,-39c-0.7,-1.9 -1.4,-3.5 -1.8,-4.7c-0.5,-1.2 -1.1,-2.3 -1.8,-3.3c-0.7,-1 -1.6,-1.8 -2.8,-2.5c-1.1,-0.6 -2.6,-1 -4.3,-1c-1.7,0 -3.1,0.3 -4.2,1c-1.1,0.6 -2.1,1.5 -2.8,2.5c-0.7,1 -1.4,2.4 -2,3.9c-0.6,1.6 -1.1,2.9 -1.6,4.1l-15.2,39.4c-0.6,1.6 -1.1,2.8 -1.4,3.7c-0.3,0.9 -0.4,1.7 -0.4,2.6c0,1.4 0.6,2.7 1.8,3.8c1.2,1.1 2.5,1.7 4.1,1.7c1.8,0 3.1,-0.5 3.9,-1.6c0.8,-1.1 1.8,-3.1 2.9,-6.1l2.9,-7.7l24.6,0l2.8,7.5l0,0zm-24.2,-16.8l18.1,0l-9.1,-24.9l-9,24.9z" clip-rule="evenodd" fill-rule="evenodd"/> </g> </g></svg>